<?xml version="1.0" encoding="UTF-8"?>
<svg id="Layer_1" data-name="Layer 1" xmlns="http://www.w3.org/2000/svg" version="1.1" viewBox="0 0 188.3 72">
  <defs>
    <style>
      .cls-1 {
        fill: #004994;
      }

      .cls-1, .cls-2 {
        fill-rule: evenodd;
        stroke-width: 0px;
      }

      .cls-2 {
        fill: #00773d;
      }
    </style>
  </defs>
  <g>
    <g>
      <path class="cls-2" d="M137.3,47l-2-9.4-1,4.8c-.2,1-.2,2-.5,4.6h-8.2c0-1,.2-2,.5-3h-.1c-2,2.4-4.9,3.8-8,3.7-5.4,0-7.5-2.9-6.5-7.5,1.3-5.5,6.8-7.8,14.2-7.8h2.7c.4-2,1.5-4.9-2-4.7-2.1,0-3.2,2.1-3.5,3.5h-8.1c.6-2.8,2.6-5.1,5.3-6.1,2.6-1,5.3-1.4,8.1-1.4s2.9.2,4.3.6l-.6-2.9c-2.3-10.9-13.3-19.7-24.1-19.7h-42.2l5.5,25.8,2.8-13h8.6l-2.7,12.3h0c2-2,4.7-3.1,7.6-3.1,7,0,8.9,5.3,7.6,11.7-1.5,6.9-5.7,12.3-13.2,12.3s-5.4-1.7-5.5-4h-.2l-1,3.3.6,3c2.3,10.9,13.3,19.7,24.1,19.7h42.3l-4.9-22.7ZM104.6,37.9l-2,9.1h-8.6l3.6-16.8c.4-1.9.8-3.9,1-5.8h8.7l-.8,4.2h0c1.8-3.7,4.9-5,8.7-4.9l-1.6,7.3c-.6,0-1.2,0-1.8,0-4.5,0-6.6,2.7-7.3,7Z"/>
      <path class="cls-2" d="M86.1,35.6c.6-2.8,1.1-7-2.6-7s-5.1,4.3-5.8,7.4c-.6,2.5-.7,6.7,2.4,6.7s5.4-4.2,6-7.1Z"/>
      <path class="cls-2" d="M119.9,39.7c-.4,1.2.3,2.5,1.5,2.9.2,0,.5,0,.7,0,3.7,0,4.8-3.5,5.4-6.5-1.8,0-3.5,0-4.8.5-1.3.6-2.5,1.4-2.8,3Z"/>
    </g>
    <g>
      <path class="cls-1" d="M169,39.7c.3-1.6,1.5-2.4,2.9-3,1.3-.6,3-.5,4.8-.5-.7,3-1.7,6.5-5.4,6.5s-2.3-1-2.4-2.2c0-.3,0-.5,0-.8ZM182.9,47c.3-2.7.3-3.7.5-4.6l2.5-11.7c1.2-5.1-4-7-8.6-7-2.8,0-5.5.4-8.1,1.4-2.7,1-4.7,3.3-5.3,6.1h8.1c.3-1.3,1.4-3.4,3.5-3.5,3.5,0,2.4,2.7,2,4.7h-2.7c-7.4,0-13,2.3-14.2,7.8-1.1,4.6,1.1,7.5,6.5,7.5,3.1,0,6.1-1.3,8-3.7h.1c-.3,1-.5,2-.5,3h8.2Z"/>
      <polygon class="cls-1" points="26.7 47 28 40.7 12.2 40.7 13.7 33.8 28.2 33.8 29.6 27.4 15.1 27.4 16.5 20.7 32.3 20.7 33.7 14.4 8.9 14.4 1.8 47 26.7 47"/>
      <path class="cls-1" d="M145.9,24.3h-8.6l-6.7,31.3h8.6l2.4-11.3h.1c1.2,2.1,3.3,3.3,5.7,3.4,7.3,0,11.8-5.7,13.3-12.3,1.3-6-.4-11.7-7.2-11.7-3.2,0-6.2,1.4-8.2,3.9h-.1l.7-3.3h0ZM149.2,28.6c3.6,0,3.2,4.2,2.6,7-.6,2.9-2,7-5.7,7s-3.2-4.2-2.6-7,2-7,5.7-7h0Z"/>
    </g>
  </g>
  <path class="cls-1" d="M64.5,23.6c-3.5,0-6.8,1.7-9,4.3-.4-2.8-3.2-4.2-5.9-4.2-3.5,0-6.8,1.5-8.9,4.3h0l.7-3.7h-8.5c-.2,2-.6,3.9-1,5.8l-3.6,16.9h8.6l2.8-13c0-.3.5-4.9,4.8-4.9s2.7,2.4,2.3,4.6l-2.9,13.3h8.6l2.8-13c0-.3.5-4.9,4.8-4.9s2.7,2.4,2.3,4.6l-2.9,13.3h7.4l4.2-19.5c-.9-2.5-3.3-3.9-6.5-3.9Z"/>
</svg>